<?xml version="1.0" encoding="UTF-8" standalone="no"?>
<!-- Created with Inkscape (http://www.inkscape.org/) -->

<svg
   width="200mm"
   height="200mm"
   viewBox="0 0 200 200"
   version="1.1"
   id="svg1"
   xml:space="preserve"
   sodipodi:docname="logo.svg"
   inkscape:version="1.3 (0e150ed, 2023-07-21)"
   inkscape:export-filename="zero_black_white_circle.png"
   inkscape:export-xdpi="127"
   inkscape:export-ydpi="127"
   xmlns:inkscape="http://www.inkscape.org/namespaces/inkscape"
   xmlns:sodipodi="http://sodipodi.sourceforge.net/DTD/sodipodi-0.dtd"
   xmlns="http://www.w3.org/2000/svg"
   xmlns:svg="http://www.w3.org/2000/svg"><sodipodi:namedview
     id="namedview1"
     pagecolor="#ffffff"
     bordercolor="#000000"
     borderopacity="0.25"
     inkscape:showpageshadow="2"
     inkscape:pageopacity="0.0"
     inkscape:pagecheckerboard="0"
     inkscape:deskcolor="#d1d1d1"
     inkscape:document-units="mm"
     showgrid="true"
     showguides="true"
     inkscape:zoom="0.5"
     inkscape:cx="34"
     inkscape:cy="576"
     inkscape:window-width="1488"
     inkscape:window-height="889"
     inkscape:window-x="1900"
     inkscape:window-y="69"
     inkscape:window-maximized="0"
     inkscape:current-layer="layer1"
     inkscape:export-bgcolor="#28282800"><inkscape:grid
       id="grid1"
       units="mm"
       originx="0"
       originy="0"
       spacingx="0.99999999"
       spacingy="0.99999999"
       empcolor="#0099e5"
       empopacity="0.30196078"
       color="#0099e5"
       opacity="0.14901961"
       empspacing="5"
       dotted="false"
       gridanglex="30"
       gridanglez="30"
       visible="true"
       snapvisiblegridlinesonly="true"
       enabled="true" /></sodipodi:namedview><defs
     id="defs1" /><g
     inkscape:label="Layer 1"
     inkscape:groupmode="layer"
     id="layer1"><ellipse
       style="fill:#ffccaa;stroke-width:3.37259"
       id="path1-35-2-71"
       cx="-10.499969"
       cy="75.499977"
       rx="10.499969"
       ry="10.499976" /><g
       id="g2"
       transform="matrix(1.4007263,0,0,1.4007263,-40.072537,-40.072519)"
       style="opacity:1;fill:#000000;fill-opacity:1"><g
         id="g1"
         style="fill:#000000;fill-opacity:1"><path
           id="path1-35-2-71-7-6-5-0-0"
           style="opacity:1;fill:#000000;fill-opacity:1;stroke-width:8.73937"
           d="M 57.208576,28.763453 C 42.181804,28.76334 30.000089,40.944827 29.999908,55.97161 v 44.02849 c -1.03e-4,15.02698 12.181696,27.20878 27.208668,27.20867 15.026772,-1.7e-4 27.208259,-12.18189 27.208156,-27.20867 V 55.97161 C 84.416551,40.945027 72.235148,28.763623 57.208576,28.763453 Z m 0,10.388337 c 9.289336,-2.6e-5 16.81984,7.530477 16.819821,16.81982 L 40.388756,86.061893 V 55.97161 c -1.9e-5,-9.289343 7.530484,-16.819845 16.81982,-16.81982 z M 74.028397,69.909815 V 100.0001 c 1.3e-5,9.28934 -7.530489,16.81984 -16.819821,16.81981 -9.289332,3e-5 -16.819833,-7.53047 -16.81982,-16.81981 z"
           sodipodi:nodetypes="ccccccccccccccccc" /><path
           id="path1-35-2-71-7-6-5-9-0-5"
           style="opacity:1;fill:#000000;fill-opacity:1;stroke-width:8.73937"
           d="m 122.01426,28.763102 v 0 10.38903 -5.17e-4 5.17e-4 h 20.77702 v -5.17e-4 c 9.28961,-2.19e-4 16.82038,7.530549 16.82017,16.820162 V 77.281588 100.0001 h 10.38851 V 55.971777 C 169.99978,40.944989 157.81806,28.7635 142.79128,28.763619 v -5.17e-4 z"
           sodipodi:nodetypes="ccccccccccccccc" /><ellipse
           style="opacity:1;fill:#000000;fill-opacity:1;stroke-width:1.66843"
           id="path1-35-2-7-5-5-8-6"
           cx="144.02817"
           cy="67.481857"
           rx="5.1943469"
           ry="5.1943483" /><path
           id="path1-35-2-71-7-6-5-7-0-7-6"
           style="opacity:1;fill:#000000;fill-opacity:1;stroke-width:8.73937"
           d="m 94.805581,144.02808 a 27.208464,27.208484 0 0 0 27.208659,27.20866 27.208464,27.208484 0 0 0 27.20817,-27.20866 h -10.38834 a 16.819774,16.819786 0 0 1 -16.81983,16.81981 16.819774,16.819786 0 0 1 -16.81981,-16.81981 z" /><path
           id="path1-35-2-71-7-6-5-7-4-9-9"
           style="opacity:1;fill:#000000;fill-opacity:1;stroke-width:8.73937"
           d="M 122.01424,72.791429 A 27.208464,27.208484 0 0 0 94.805581,100.0001 27.208464,27.208484 0 0 0 122.01424,127.20877 27.208464,27.208484 0 0 0 149.22241,100.0001 27.208464,27.208484 0 0 0 122.01424,72.791429 Z m 0,10.388849 a 16.819774,16.819786 0 0 1 16.81983,16.819822 16.819774,16.819786 0 0 1 -16.81983,16.81981 16.819774,16.819786 0 0 1 -16.81981,-16.81981 16.819774,16.819786 0 0 1 16.81981,-16.819822 z" /></g></g></g></svg>
